LWalking1_XZ.mot
version=1
datacolumns 20
datarows 20
range 1.900000 2.090000
inDegrees=yes
endheader
time	pelvis_tilt	pelvis_list	pelvis_rotation	hip_flexion_r	hip_adduction_r	hip_rotation_r	knee_angle_r	ankle_angle_r	hip_flexion_l	hip_adduction_l	hip_rotation_l	knee_angle_l	ankle_angle_l	pelvis_tx	pelvis_ty	pelvis_tz	lumbar_bending	lumbar_rotation	lumbar_extension
1.900000	12.190748	-5.943487	180.298751	6.004834	-9.322195	-2.316585	-44.721290	-15.952470	34.530011	7.145866	-0.883765	-19.497602	-2.019371	0.555058	0.944329	0.026744	5.912284	-9.007344	11.961081
1.910000	12.127892	-6.476463	180.311804	7.969323	-9.950138	-2.035272	-47.857079	-16.561500	33.482196	7.791490	-1.036818	-19.444190	-1.311500	0.541135	0.946603	0.028301	5.620241	-9.396839	11.928875
1.920000	12.025172	-6.889604	180.325920	9.923506	-10.414402	-1.741528	-50.770027	-16.585944	32.275192	8.319872	-1.247470	-19.151682	-0.678256	0.527416	0.948990	0.029764	5.322769	-9.674171	11.862193
1.930000	11.902410	-7.143350	180.344549	11.868311	-10.681919	-1.431563	-53.423432	-16.079617	30.955298	8.692295	-1.558630	-18.666290	-0.128212	0.513859	0.951486	0.031154	5.006111	-9.803966	11.785142
1.940000	11.778982	-7.216337	180.374341	13.797485	-10.738447	-1.118177	-55.769288	-15.144674	29.577603	8.891640	-1.982086	-18.053799	0.348575	0.500426	0.954067	0.032489	4.650284	-9.763373	11.720008
1.950000	11.668113	-7.106797	180.420607	15.693625	-10.589145	-0.838937	-57.749316	-13.923999	28.189504	8.918062	-2.489121	-17.380146	0.772319	0.487090	0.956708	0.033775	4.237982	-9.544035	11.680364
1.960000	11.575753	-6.832074	180.483054	17.533325	-10.257410	-0.640969	-59.305402	-12.572233	26.821840	8.784062	-3.024968	-16.695662	1.162919	0.473827	0.959388	0.035011	3.763592	-9.154741	11.668542
1.970000	11.503720	-6.423978	180.554316	19.297135	-9.778641	-0.551253	-60.394042	-11.220838	25.490134	8.509583	-3.538256	-16.028850	1.530494	0.460621	0.962092	0.036187	3.237025	-8.620815	11.678237
1.980000	11.453222	-5.921153	180.622551	20.976198	-9.190775	-0.562145	-60.997269	-9.956597	24.200683	8.118509	-4.003418	-15.388816	1.869813	0.447467	0.964811	0.037289	2.680146	-7.979250	11.698972
1.990000	11.425440	-5.361689	180.676296	22.571348	-8.527190	-0.644788	-61.124968	-8.817663	22.954775	7.637384	-4.421942	-14.771576	2.161846	0.434383	0.967533	0.038301	2.119017	-7.271585	11.719222
2.000000	11.418833	-4.775878	180.709708	24.085526	-7.812775	-0.776069	-60.807431	-7.802856	21.748701	7.093363	-4.805787	-14.166892	2.383906	0.421406	0.970236	0.039218	1.575294	-6.534818	11.727439
2.010000	11.426537	-4.181517	180.723476	25.516435	-7.062640	-0.951675	-60.082838	-6.890026	20.572675	6.510558	-5.163302	-13.563417	2.523426	0.408583	0.972874	0.040045	1.062874	-5.794299	11.712933
2.020000	11.436971	-3.587276	180.719878	26.855459	-6.285669	-1.176752	-58.987888	-6.055461	19.411452	5.909660	-5.499266	-12.950081	2.586882	0.395953	0.975382	0.040799	0.592071	-5.065375	11.667969
2.030000	11.436996	-3.001433	180.698442	28.090967	-5.491357	-1.449355	-57.554418	-5.286991	18.246031	5.311522	-5.820876	-12.314165	2.601236	0.383527	0.977672	0.041495	0.173589	-4.361193	11.589844
2.040000	11.415192	-2.438195	180.657209	29.211642	-4.694963	-1.749368	-55.809544	-4.588684	17.055629	4.739925	-6.141341	-11.639633	2.610059	0.371272	0.979650	0.042136	-0.184056	-3.698484	11.480942
2.050000	11.363698	-1.919662	180.598980	30.208336	-3.920569	-2.039343	-53.777227	-3.974537	15.820383	4.222610	-6.477422	-10.909513	2.664628	0.359120	0.981232	0.042706	-0.482159	-3.099253	11.346342
2.060000	11.278546	-1.473516	180.538768	31.074801	-3.202351	-2.280969	-51.479822	-3.454711	14.525480	3.790260	-6.838099	-10.112924	2.810262	0.346980	0.982349	0.043174	-0.739446	-2.588598	11.190610
2.070000	11.159651	-1.125544	180.505364	31.808108	-2.580370	-2.454746	-48.937602	-3.027308	13.166104	3.470221	-7.211908	-9.253066	3.072069	0.334766	0.982967	0.043502	-0.992524	-2.187970	11.016479
2.080000	11.011131	-0.890582	180.531634	32.409043	-2.089650	-2.562904	-46.166357	-2.683092	11.750608	3.276546	-7.565744	-8.351003	3.448066	0.322414	0.983084	0.043665	-1.283938	-1.907594	10.826430
2.090000	10.840874	-0.768208	180.639155	32.881823	-1.749250	-2.615942	-43.177004	-2.413489	10.298974	3.204559	-7.855958	-7.442792	3.914992	0.309894	0.982729	0.043664	-1.643768	-1.744090	10.625141
